STARTFONT 2.1
FONT -FontForge-Bitstream Vera Sans-Bold-R-Normal-Sans--16-150-75-75-P-103-ISO10646-1
SIZE 15 75 75
FONTBOUNDINGBOX 26 20 -3 -4
COMMENT "Generated by fontforge, http://fontforge.sourceforge.net"
COMMENT "Copyright (c) 2003 by Bitstream, Inc. All Rights Reserved."
STARTPROPERTIES 40
FOUNDRY "FontForge"
FAMILY_NAME "Bitstream Vera Sans"
WEIGHT_NAME "Bold"
SLANT "R"
SETWIDTH_NAME "Normal"
ADD_STYLE_NAME "Sans"
PIXEL_SIZE 16
POINT_SIZE 150
RESOLUTION_X 75
RESOLUTION_Y 75
SPACING "P"
AVERAGE_WIDTH 103
CHARSET_REGISTRY "ISO10646"
CHARSET_ENCODING "1"
FONTNAME_REGISTRY ""
CHARSET_COLLECTIONS "ISO8859-9 ISO10646-1"
FONT_NAME "BitstreamVeraSans-Bold"
FACE_NAME "Bitstream Vera Sans Bold"
COPYRIGHT "Copyright (c) 2003 by Bitstream, Inc. All Rights Reserved."
FONT_VERSION "Release 1.10"
FONT_ASCENT 12
FONT_DESCENT 4
UNDERLINE_POSITION -3
UNDERLINE_THICKNESS 3
X_HEIGHT 8
CAP_HEIGHT 11
RAW_ASCENT 759
RAW_DESCENT 240
NORM_SPACE 6
RELATIVE_WEIGHT 70
RELATIVE_SETWIDTH 50
SUPERSCRIPT_X 0
SUPERSCRIPT_Y 4
SUPERSCRIPT_SIZE 9
SUBSCRIPT_X 0
SUBSCRIPT_Y -3
SUBSCRIPT_SIZE 9
FIGURE_WIDTH 11
AVG_LOWERCASE_WIDTH 100
AVG_UPPERCASE_WIDTH 117
ENDPROPERTIES
CHARS 267
STARTCHAR space
ENCODING 32
SWIDTH 348 0
DWIDTH 6 0
BBX 1 1 0 0
BITMAP
00
ENDCHAR
STARTCHAR exclam
ENCODING 33
SWIDTH 456 0
DWIDTH 7 0
BBX 2 12 2 0
BITMAP
C0
C0
C0
C0
C0
C0
C0
C0
00
C0
C0
C0
ENDCHAR
STARTCHAR quotedbl
ENCODING 34
SWIDTH 520 0
DWIDTH 8 0
BBX 6 4 1 8
BITMAP
CC
CC
CC
CC
ENDCHAR
STARTCHAR numbersign
ENCODING 35
SWIDTH 837 0
DWIDTH 13 0
BBX 11 12 1 0
BITMAP
0CC0
0C80
0980
7FE0
7FE0
1900
1300
FFC0
FFC0
3200
2600
2600
ENDCHAR
STARTCHAR dollar
ENCODING 36
SWIDTH 695 0
DWIDTH 11 0
BBX 7 14 3 -2
BITMAP
10
10
78
FC
D4
D0
F8
3E
16
96
FE
7C
10
10
ENDCHAR
STARTCHAR percent
ENCODING 37
SWIDTH 1001 0
DWIDTH 16 0
BBX 15 12 1 0
BITMAP
7830
CC70
CC60
CCC0
CDC0
7980
033C
0766
0666
0C66
1C66
183C
ENDCHAR
STARTCHAR ampersand
ENCODING 38
SWIDTH 872 0
DWIDTH 14 0
BBX 12 12 1 0
BITMAP
1F00
3F80
3080
3000
3800
7C60
EF60
C3E0
C1C0
E3C0
7FE0
3F70
ENDCHAR
STARTCHAR quotesingle
ENCODING 39
SWIDTH 306 0
DWIDTH 5 0
BBX 2 4 1 8
BITMAP
C0
C0
C0
C0
ENDCHAR
STARTCHAR parenleft
ENCODING 40
SWIDTH 457 0
DWIDTH 7 0
BBX 4 14 1 -2
BITMAP
30
60
60
E0
C0
C0
C0
C0
C0
C0
E0
60
60
30
ENDCHAR
STARTCHAR parenright
ENCODING 41
SWIDTH 457 0
DWIDTH 7 0
BBX 4 14 1 -2
BITMAP
C0
60
60
70
30
30
30
30
30
30
70
60
60
C0
ENDCHAR
STARTCHAR asterisk
ENCODING 42
SWIDTH 522 0
DWIDTH 8 0
BBX 7 7 1 5
BITMAP
10
92
7C
38
7C
92
10
ENDCHAR
STARTCHAR plus
ENCODING 43
SWIDTH 837 0
DWIDTH 13 0
BBX 10 10 2 0
BITMAP
0C00
0C00
0C00
0C00
FFC0
FFC0
0C00
0C00
0C00
0C00
ENDCHAR
STARTCHAR comma
ENCODING 44
SWIDTH 379 0
DWIDTH 6 0
BBX 3 5 0 -2
BITMAP
60
60
60
60
C0
ENDCHAR
STARTCHAR hyphen
ENCODING 45
SWIDTH 415 0
DWIDTH 7 0
BBX 5 2 1 4
BITMAP
F8
F8
ENDCHAR
STARTCHAR period
ENCODING 46
SWIDTH 379 0
DWIDTH 6 0
BBX 2 3 1 0
BITMAP
C0
C0
C0
ENDCHAR
STARTCHAR slash
ENCODING 47
SWIDTH 365 0
DWIDTH 6 0
BBX 6 13 0 -1
BITMAP
0C
0C
18
18
18
30
30
30
60
60
60
C0
C0
ENDCHAR
STARTCHAR zero
ENCODING 48
SWIDTH 695 0
DWIDTH 11 0
BBX 9 12 1 0
BITMAP
3E00
7F00
6300
C180
C180
C180
C180
C180
C180
6300
7F00
3E00
ENDCHAR
STARTCHAR one
ENCODING 49
SWIDTH 695 0
DWIDTH 11 0
BBX 8 12 2 0
BITMAP
78
F8
D8
18
18
18
18
18
18
18
FF
FF
ENDCHAR
STARTCHAR two
ENCODING 50
SWIDTH 695 0
DWIDTH 11 0
BBX 8 12 1 0
BITMAP
7C
FE
87
03
03
07
0E
1C
38
70
FF
FF
ENDCHAR
STARTCHAR three
ENCODING 51
SWIDTH 695 0
DWIDTH 11 0
BBX 9 12 1 0
BITMAP
7E00
FF80
8180
0180
3F00
3F00
0380
0180
0180
8380
FF00
7E00
ENDCHAR
STARTCHAR four
ENCODING 52
SWIDTH 695 0
DWIDTH 11 0
BBX 10 12 1 0
BITMAP
0F00
0F00
1B00
3B00
3300
7300
6300
C300
FFC0
FFC0
0300
0300
ENDCHAR
STARTCHAR five
ENCODING 53
SWIDTH 695 0
DWIDTH 11 0
BBX 9 12 1 0
BITMAP
FF00
FF00
C000
C000
FE00
FF00
8380
0180
0180
8380
FF00
7E00
ENDCHAR
STARTCHAR six
ENCODING 54
SWIDTH 695 0
DWIDTH 11 0
BBX 9 12 1 0
BITMAP
1E00
7F00
6100
C000
FE00
FF00
E380
C180
C180
6380
7F00
3E00
ENDCHAR
STARTCHAR seven
ENCODING 55
SWIDTH 695 0
DWIDTH 11 0
BBX 9 12 1 0
BITMAP
FF80
FF80
0380
0300
0300
0600
0600
0C00
0C00
1800
1800
3800
ENDCHAR
STARTCHAR eight
ENCODING 56
SWIDTH 695 0
DWIDTH 11 0
BBX 9 12 1 0
BITMAP
7F00
FF80
C180
C180
7F00
7F00
E380
C180
C180
E380
7F00
3E00
ENDCHAR
STARTCHAR nine
ENCODING 57
SWIDTH 695 0
DWIDTH 11 0
BBX 9 12 1 0
BITMAP
3E00
7F00
E300
C180
C180
E380
7F80
3F80
0180
4300
7F00
3C00
ENDCHAR
STARTCHAR colon
ENCODING 58
SWIDTH 399 0
DWIDTH 6 0
BBX 2 9 1 0
BITMAP
C0
C0
C0
00
00
00
C0
C0
C0
ENDCHAR
STARTCHAR semicolon
ENCODING 59
SWIDTH 399 0
DWIDTH 6 0
BBX 3 11 0 -2
BITMAP
60
60
60
00
00
00
60
60
60
60
C0
ENDCHAR
STARTCHAR less
ENCODING 60
SWIDTH 837 0
DWIDTH 13 0
BBX 10 9 2 1
BITMAP
0040
03C0
1F00
F800
C000
F800
1F00
03C0
0040
ENDCHAR
STARTCHAR equal
ENCODING 61
SWIDTH 837 0
DWIDTH 13 0
BBX 10 6 2 2
BITMAP
FFC0
FFC0
0000
0000
FFC0
FFC0
ENDCHAR
STARTCHAR greater
ENCODING 62
SWIDTH 837 0
DWIDTH 13 0
BBX 10 9 2 1
BITMAP
8000
F000
3E00
07C0
00C0
07C0
3E00
F000
8000
ENDCHAR
STARTCHAR question
ENCODING 63
SWIDTH 580 0
DWIDTH 9 0
BBX 7 12 1 0
BITMAP
7C
FE
86
06
0E
1C
38
30
00
30
30
30
ENDCHAR
STARTCHAR at
ENCODING 64
SWIDTH 1000 0
DWIDTH 16 0
BBX 14 14 1 -2
BITMAP
0FC0
1830
2018
47E8
CCE4
9864
9864
9864
9864
CCE8
47F0
2000
1830
07E0
ENDCHAR
STARTCHAR A
ENCODING 65
SWIDTH 773 0
DWIDTH 12 0
BBX 12 12 0 0
BITMAP
0F00
0F00
0F00
1980
1980
39C0
30C0
3FC0
7FE0
6060
6060
C030
ENDCHAR
STARTCHAR B
ENCODING 66
SWIDTH 762 0
DWIDTH 12 0
BBX 10 12 1 0
BITMAP
FF00
FFC0
C1C0
C0C0
C1C0
FF80
FF80
C0C0
C0C0
C0C0
FFC0
FF00
ENDCHAR
STARTCHAR C
ENCODING 67
SWIDTH 733 0
DWIDTH 12 0
BBX 10 12 1 0
BITMAP
1F80
3FC0
7040
E000
C000
C000
C000
C000
E000
7040
3FC0
1F80
ENDCHAR
STARTCHAR D
ENCODING 68
SWIDTH 830 0
DWIDTH 13 0
BBX 11 12 1 0
BITMAP
FE00
FF80
C1C0
C0E0
C060
C060
C060
C060
C0E0
C1C0
FF80
FE00
ENDCHAR
STARTCHAR E
ENCODING 69
SWIDTH 683 0
DWIDTH 10 0
BBX 8 12 1 0
BITMAP
FF
FF
C0
C0
C0
FF
FF
C0
C0
C0
FF
FF
ENDCHAR
STARTCHAR F
ENCODING 70
SWIDTH 683 0
DWIDTH 10 0
BBX 8 12 1 0
BITMAP
FF
FF
C0
C0
C0
FF
FF
C0
C0
C0
C0
C0
ENDCHAR
STARTCHAR G
ENCODING 71
SWIDTH 820 0
DWIDTH 13 0
BBX 11 12 1 0
BITMAP
1F80
3FC0
7040
E000
C000
C000
C1E0
C1E0
E060
7060
3FE0
1FC0
ENDCHAR
STARTCHAR H
ENCODING 72
SWIDTH 836 0
DWIDTH 12 0
BBX 10 12 1 0
BITMAP
C0C0
C0C0
C0C0
C0C0
C0C0
FFC0
FFC0
C0C0
C0C0
C0C0
C0C0
C0C0
ENDCHAR
STARTCHAR I
ENCODING 73
SWIDTH 372 0
DWIDTH 6 0
BBX 2 12 2 0
BITMAP
C0
C0
C0
C0
C0
C0
C0
C0
C0
C0
C0
C0
ENDCHAR
STARTCHAR J
ENCODING 74
SWIDTH 372 0
DWIDTH 6 0
BBX 4 15 0 -3
BITMAP
30
30
30
30
30
30
30
30
30
30
30
30
30
E0
E0
ENDCHAR
STARTCHAR K
ENCODING 75
SWIDTH 774 0
DWIDTH 11 0
BBX 10 12 1 0
BITMAP
C180
C300
C600
CC00
D800
F000
D800
CC00
C600
C300
C180
C0C0
ENDCHAR
STARTCHAR L
ENCODING 76
SWIDTH 637 0
DWIDTH 10 0
BBX 8 12 1 0
BITMAP
C0
C0
C0
C0
C0
C0
C0
C0
C0
C0
FF
FF
ENDCHAR
STARTCHAR M
ENCODING 77
SWIDTH 995 0
DWIDTH 16 0
BBX 13 12 1 0
BITMAP
E038
E038
F078
F078
D8D8
D8D8
CD98
CD98
C718
C718
C018
C018
ENDCHAR
STARTCHAR N
ENCODING 78
SWIDTH 836 0
DWIDTH 13 0
BBX 10 12 1 0
BITMAP
E0C0
F0C0
F0C0
F8C0
D8C0
CCC0
CCC0
C6C0
C7C0
C3C0
C3C0
C1C0
ENDCHAR
STARTCHAR O
ENCODING 79
SWIDTH 850 0
DWIDTH 14 0
BBX 12 12 1 0
BITMAP
1F80
3FC0
70E0
E070
C030
C030
C030
C030
E070
70E0
3FC0
1F80
ENDCHAR
STARTCHAR P
ENCODING 80
SWIDTH 732 0
DWIDTH 12 0
BBX 10 12 1 0
BITMAP
FF00
FF80
C1C0
C0C0
C0C0
C1C0
FF80
FF00
C000
C000
C000
C000
ENDCHAR
STARTCHAR Q
ENCODING 81
SWIDTH 850 0
DWIDTH 14 0
BBX 12 14 1 -2
BITMAP
1F80
3FC0
70E0
E070
C030
C030
C030
C030
E070
70E0
3FC0
1F80
01C0
00E0
ENDCHAR
STARTCHAR R
ENCODING 82
SWIDTH 770 0
DWIDTH 12 0
BBX 10 12 1 0
BITMAP
FF00
FF80
C180
C180
C180
FF00
FF00
C380
C180
C180
C1C0
C0C0
ENDCHAR
STARTCHAR S
ENCODING 83
SWIDTH 720 0
DWIDTH 11 0
BBX 9 12 1 0
BITMAP
3F00
7F00
C100
C000
F000
7C00
1F00
0780
0180
8180
FF00
7E00
ENDCHAR
STARTCHAR T
ENCODING 84
SWIDTH 682 0
DWIDTH 11 0
BBX 10 12 0 0
BITMAP
FFC0
FFC0
0C00
0C00
0C00
0C00
0C00
0C00
0C00
0C00
0C00
0C00
ENDCHAR
STARTCHAR U
ENCODING 85
SWIDTH 812 0
DWIDTH 12 0
BBX 10 12 1 0
BITMAP
C0C0
C0C0
C0C0
C0C0
C0C0
C0C0
C0C0
C0C0
C0C0
E1C0
7F80
3F00
ENDCHAR
STARTCHAR V
ENCODING 86
SWIDTH 773 0
DWIDTH 12 0
BBX 12 12 0 0
BITMAP
C030
6060
6060
6060
30C0
30C0
30C0
1980
1980
1980
0F00
0F00
ENDCHAR
STARTCHAR W
ENCODING 87
SWIDTH 1103 0
DWIDTH 18 0
BBX 17 12 0 0
BITMAP
C1C180
C1C180
63E300
636300
636300
636300
363600
363600
363600
363600
1C1C00
1C1C00
ENDCHAR
STARTCHAR X
ENCODING 88
SWIDTH 770 0
DWIDTH 12 0
BBX 12 12 0 0
BITMAP
E070
6060
30C0
39C0
1F80
0F00
0F00
1980
39C0
30C0
6060
E070
ENDCHAR
STARTCHAR Y
ENCODING 89
SWIDTH 724 0
DWIDTH 12 0
BBX 10 12 0 0
BITMAP
E1C0
6180
7380
3300
1E00
1E00
0C00
0C00
0C00
0C00
0C00
0C00
ENDCHAR
STARTCHAR Z
ENCODING 90
SWIDTH 725 0
DWIDTH 12 0
BBX 10 12 1 0
BITMAP
FFC0
FFC0
0180
0380
0700
0E00
1C00
3800
7000
6000
FFC0
FFC0
ENDCHAR
STARTCHAR bracketleft
ENCODING 91
SWIDTH 457 0
DWIDTH 7 0
BBX 4 14 1 -2
BITMAP
F0
F0
C0
C0
C0
C0
C0
C0
C0
C0
C0
C0
F0
F0
ENDCHAR
STARTCHAR backslash
ENCODING 92
SWIDTH 365 0
DWIDTH 6 0
BBX 6 13 0 -1
BITMAP
C0
C0
60
60
60
30
30
30
18
18
18
0C
0C
ENDCHAR
STARTCHAR bracketright
ENCODING 93
SWIDTH 457 0
DWIDTH 7 0
BBX 4 14 1 -2
BITMAP
F0
F0
30
30
30
30
30
30
30
30
30
30
F0
F0
ENDCHAR
STARTCHAR asciicircum
ENCODING 94
SWIDTH 837 0
DWIDTH 13 0
BBX 8 4 3 8
BITMAP
18
3C
66
C3
ENDCHAR
STARTCHAR underscore
ENCODING 95
SWIDTH 500 0
DWIDTH 8 0
BBX 8 1 0 -4
BITMAP
FF
ENDCHAR
STARTCHAR grave
ENCODING 96
SWIDTH 500 0
DWIDTH 8 0
BBX 4 3 1 10
BITMAP
C0
60
30
ENDCHAR
STARTCHAR a
ENCODING 97
SWIDTH 674 0
DWIDTH 10 0
BBX 8 9 1 0
BITMAP
3E
7F
03
7F
FF
C3
C7
FF
7B
ENDCHAR
STARTCHAR b
ENCODING 98
SWIDTH 715 0
DWIDTH 11 0
BBX 9 12 1 0
BITMAP
C000
C000
C000
DE00
FF00
E380
C180
C180
C180
E380
FF00
DE00
ENDCHAR
STARTCHAR c
ENCODING 99
SWIDTH 592 0
DWIDTH 10 0
BBX 8 9 1 0
BITMAP
3E
7F
E1
C0
C0
C0
E1
7F
3E
ENDCHAR
STARTCHAR d
ENCODING 100
SWIDTH 715 0
DWIDTH 11 0
BBX 9 12 1 0
BITMAP
0180
0180
0180
3D80
7F80
E380
C180
C180
C180
E380
7F80
3D80
ENDCHAR
STARTCHAR e
ENCODING 101
SWIDTH 678 0
DWIDTH 11 0
BBX 9 9 1 0
BITMAP
3E00
7F00
C180
FF80
FF80
C000
E080
7F80
3F00
ENDCHAR
STARTCHAR f
ENCODING 102
SWIDTH 435 0
DWIDTH 7 0
BBX 6 12 1 0
BITMAP
3C
7C
60
F8
F8
60
60
60
60
60
60
60
ENDCHAR
STARTCHAR g
ENCODING 103
SWIDTH 715 0
DWIDTH 11 0
BBX 9 12 1 -3
BITMAP
3D80
7F80
E380
C180
C180
C180
E380
7F80
3D80
4380
7F00
3E00
ENDCHAR
STARTCHAR h
ENCODING 104
SWIDTH 711 0
DWIDTH 11 0
BBX 9 12 1 0
BITMAP
C000
C000
C000
DF00
FF80
E180
C180
C180
C180
C180
C180
C180
ENDCHAR
STARTCHAR i
ENCODING 105
SWIDTH 342 0
DWIDTH 4 0
BBX 2 12 1 0
BITMAP
C0
C0
00
C0
C0
C0
C0
C0
C0
C0
C0
C0
ENDCHAR
STARTCHAR j
ENCODING 106
SWIDTH 342 0
DWIDTH 4 0
BBX 4 15 -1 -3
BITMAP
30
30
00
30
30
30
30
30
30
30
30
30
30
F0
E0
ENDCHAR
STARTCHAR k
ENCODING 107
SWIDTH 665 0
DWIDTH 11 0
BBX 9 12 1 0
BITMAP
C000
C000
C000
C380
C700
CE00
DC00
F800
DC00
CE00
C700
C380
ENDCHAR
STARTCHAR l
ENCODING 108
SWIDTH 342 0
DWIDTH 4 0
BBX 2 12 1 0
BITMAP
C0
C0
C0
C0
C0
C0
C0
C0
C0
C0
C0
C0
ENDCHAR
STARTCHAR m
ENCODING 109
SWIDTH 1041 0
DWIDTH 16 0
BBX 14 9 1 0
BITMAP
DE78
FFFC
E38C
C30C
C30C
C30C
C30C
C30C
C30C
ENDCHAR
STARTCHAR n
ENCODING 110
SWIDTH 711 0
DWIDTH 11 0
BBX 9 9 1 0
BITMAP
DF00
FF80
E180
C180
C180
C180
C180
C180
C180
ENDCHAR
STARTCHAR o
ENCODING 111
SWIDTH 687 0
DWIDTH 11 0
BBX 9 9 1 0
BITMAP
3E00
7F00
E380
C180
C180
C180
E380
7F00
3E00
ENDCHAR
STARTCHAR p
ENCODING 112
SWIDTH 715 0
DWIDTH 11 0
BBX 9 12 1 -3
BITMAP
DE00
FF00
E380
C180
C180
C180
E380
FF00
DE00
C000
C000
C000
ENDCHAR
STARTCHAR q
ENCODING 113
SWIDTH 715 0
DWIDTH 11 0
BBX 9 12 1 -3
BITMAP
3D80
7F80
E380
C180
C180
C180
E380
7F80
3D80
0180
0180
0180
ENDCHAR
STARTCHAR r
ENCODING 114
SWIDTH 493 0
DWIDTH 8 0
BBX 7 9 1 0
BITMAP
CE
FE
E0
C0
C0
C0
C0
C0
C0
ENDCHAR
STARTCHAR s
ENCODING 115
SWIDTH 595 0
DWIDTH 10 0
BBX 8 9 1 0
BITMAP
7E
FF
C1
F8
7E
07
83
FF
7E
ENDCHAR
STARTCHAR t
ENCODING 116
SWIDTH 478 0
DWIDTH 8 0
BBX 6 11 1 0
BITMAP
60
60
FC
FC
60
60
60
60
60
7C
3C
ENDCHAR
STARTCHAR u
ENCODING 117
SWIDTH 711 0
DWIDTH 11 0
BBX 9 9 1 0
BITMAP
C180
C180
C180
C180
C180
C180
C380
FF80
7D80
ENDCHAR
STARTCHAR v
ENCODING 118
SWIDTH 651 0
DWIDTH 10 0
BBX 10 9 0 0
BITMAP
C0C0
6180
6180
6180
3300
3300
1E00
1E00
1E00
ENDCHAR
STARTCHAR w
ENCODING 119
SWIDTH 923 0
DWIDTH 15 0
BBX 13 9 1 0
BITMAP
C218
C718
6730
6530
6DB0
6DB0
28A0
38E0
38E0
ENDCHAR
STARTCHAR x
ENCODING 120
SWIDTH 645 0
DWIDTH 10 0
BBX 10 9 0 0
BITMAP
E1C0
6180
3300
1E00
1E00
1E00
3300
6180
E1C0
ENDCHAR
STARTCHAR y
ENCODING 121
SWIDTH 651 0
DWIDTH 10 0
BBX 10 12 0 -3
BITMAP
C0C0
6180
6180
3180
3300
3300
1E00
1E00
0E00
0C00
7C00
7800
ENDCHAR
STARTCHAR z
ENCODING 122
SWIDTH 582 0
DWIDTH 9 0
BBX 8 9 1 0
BITMAP
FF
FF
06
0C
18
30
60
FF
FF
ENDCHAR
STARTCHAR braceleft
ENCODING 123
SWIDTH 711 0
DWIDTH 11 0
BBX 6 15 2 -3
BITMAP
1C
3C
30
30
30
30
30
F0
F0
30
30
30
30
3C
1C
ENDCHAR
STARTCHAR bar
ENCODING 124
SWIDTH 365 0
DWIDTH 6 0
BBX 2 16 2 -4
BITMAP
C0
C0
C0
C0
C0
C0
C0
C0
C0
C0
C0
C0
C0
C0
C0
C0
ENDCHAR
STARTCHAR braceright
ENCODING 125
SWIDTH 711 0
DWIDTH 11 0
BBX 6 15 2 -3
BITMAP
E0
F0
30
30
30
30
30
3C
3C
30
30
30
30
F0
E0
ENDCHAR
STARTCHAR asciitilde
ENCODING 126
SWIDTH 837 0
DWIDTH 13 0
BBX 10 3 2 3
BITMAP
7840
FFC0
8780
ENDCHAR
STARTCHAR nonbreakingspace
ENCODING 160
SWIDTH 695 0
DWIDTH 11 0
BBX 1 1 0 0
BITMAP
00
ENDCHAR
STARTCHAR exclamdown
ENCODING 161
SWIDTH 456 0
DWIDTH 7 0
BBX 2 12 2 0
BITMAP
C0
C0
C0
00
C0
C0
C0
C0
C0
C0
C0
C0
ENDCHAR
STARTCHAR cent
ENCODING 162
SWIDTH 695 0
DWIDTH 11 0
BBX 7 13 1 -2
BITMAP
10
10
3C
7E
F2
D0
D0
D0
F2
7E
3C
10
10
ENDCHAR
STARTCHAR sterling
ENCODING 163
SWIDTH 695 0
DWIDTH 11 0
BBX 8 12 1 0
BITMAP
1E
3F
31
30
30
FE
FE
30
30
30
FF
FF
ENDCHAR
STARTCHAR currency
ENCODING 164
SWIDTH 636 0
DWIDTH 10 0
BBX 9 9 1 0
BITMAP
4100
FF80
7F00
6300
6300
6300
7F00
FF80
4100
ENDCHAR
STARTCHAR yen
ENCODING 165
SWIDTH 695 0
DWIDTH 11 0
BBX 10 12 0 0
BITMAP
E1C0
6180
7380
3300
3F00
FFC0
FFC0
0C00
FFC0
FFC0
0C00
0C00
ENDCHAR
STARTCHAR brokenbar
ENCODING 166
SWIDTH 365 0
DWIDTH 6 0
BBX 2 14 2 -3
BITMAP
C0
C0
C0
C0
C0
C0
00
00
C0
C0
C0
C0
C0
C0
ENDCHAR
STARTCHAR section
ENCODING 167
SWIDTH 500 0
DWIDTH 8 0
BBX 8 14 1 -2
BITMAP
3E
7E
62
70
7C
7E
C7
C3
7E
3E
0E
46
7E
7C
ENDCHAR
STARTCHAR dieresis
ENCODING 168
SWIDTH 500 0
DWIDTH 8 0
BBX 5 2 2 10
BITMAP
D8
D8
ENDCHAR
STARTCHAR copyright
ENCODING 169
SWIDTH 1000 0
DWIDTH 16 0
BBX 12 12 2 0
BITMAP
0F00
30C0
4020
47A0
9C90
9810
9810
9C10
47A0
4020
30C0
0F00
ENDCHAR
STARTCHAR ordfeminine
ENCODING 170
SWIDTH 563 0
DWIDTH 9 0
BBX 7 9 1 3
BITMAP
7C
06
7E
C6
CE
7E
00
FE
FE
ENDCHAR
STARTCHAR guillemotleft
ENCODING 171
SWIDTH 645 0
DWIDTH 10 0
BBX 8 7 1 1
BITMAP
11
33
EE
CC
EE
33
11
ENDCHAR
STARTCHAR logicalnot
ENCODING 172
SWIDTH 837 0
DWIDTH 13 0
BBX 10 5 2 2
BITMAP
FFC0
FFC0
00C0
00C0
00C0
ENDCHAR
STARTCHAR sfthyphen
ENCODING 173
SWIDTH 415 0
DWIDTH 7 0
BBX 5 2 1 4
BITMAP
F8
F8
ENDCHAR
STARTCHAR registered
ENCODING 174
SWIDTH 1000 0
DWIDTH 16 0
BBX 12 12 2 0
BITMAP
0F00
30C0
4020
5F20
9990
9990
9F10
9B10
59A0
4020
30C0
0F00
ENDCHAR
STARTCHAR macron
ENCODING 175
SWIDTH 500 0
DWIDTH 8 0
BBX 5 1 2 11
BITMAP
F8
ENDCHAR
STARTCHAR degree
ENCODING 176
SWIDTH 500 0
DWIDTH 8 0
BBX 5 5 1 7
BITMAP
70
88
88
88
70
ENDCHAR
STARTCHAR plusminus
ENCODING 177
SWIDTH 837 0
DWIDTH 13 0
BBX 10 10 2 0
BITMAP
0C00
0C00
0C00
FFC0
FFC0
0C00
0C00
0C00
FFC0
FFC0
ENDCHAR
STARTCHAR twosuperior
ENCODING 178
SWIDTH 437 0
DWIDTH 7 0
BBX 5 7 1 5
BITMAP
F0
98
18
38
70
C0
F8
ENDCHAR
STARTCHAR threesuperior
ENCODING 179
SWIDTH 437 0
DWIDTH 7 0
BBX 5 7 1 5
BITMAP
F8
18
70
18
18
98
F0
ENDCHAR
STARTCHAR acute
ENCODING 180
SWIDTH 500 0
DWIDTH 8 0
BBX 4 3 3 10
BITMAP
30
60
C0
ENDCHAR
STARTCHAR mu
ENCODING 181
SWIDTH 735 0
DWIDTH 12 0
BBX 10 12 1 -3
BITMAP
C180
C180
C180
C180
C180
C180
E380
FFC0
FEC0
C000
C000
C000
ENDCHAR
STARTCHAR paragraph
ENCODING 182
SWIDTH 636 0
DWIDTH 10 0
BBX 8 14 1 -2
BITMAP
3F
7B
FB
FB
FB
7B
3B
1B
1B
1B
1B
1B
1B
1B
ENDCHAR
STARTCHAR periodcentered
ENCODING 183
SWIDTH 379 0
DWIDTH 6 0
BBX 2 3 1 4
BITMAP
C0
C0
C0
ENDCHAR
STARTCHAR cedilla
ENCODING 184
SWIDTH 500 0
DWIDTH 8 0
BBX 4 3 2 -3
BITMAP
10
10
F0
ENDCHAR
STARTCHAR onesuperior
ENCODING 185
SWIDTH 437 0
DWIDTH 7 0
BBX 6 7 1 5
BITMAP
F0
30
30
30
30
30
FC
ENDCHAR
STARTCHAR ordmasculine
ENCODING 186
SWIDTH 563 0
DWIDTH 9 0
BBX 7 9 1 3
BITMAP
7C
C6
C6
C6
C6
7C
00
FE
FE
ENDCHAR
STARTCHAR guillemotright
ENCODING 187
SWIDTH 645 0
DWIDTH 10 0
BBX 8 7 2 1
BITMAP
88
CC
77
33
77
CC
88
ENDCHAR
STARTCHAR onequarter
ENCODING 188
SWIDTH 1035 0
DWIDTH 17 0
BBX 14 12 1 0
BITMAP
F030
3070
3060
30C0
31C0
3198
FF38
0378
0658
0E98
0CFC
1818
ENDCHAR
STARTCHAR onehalf
ENCODING 189
SWIDTH 1035 0
DWIDTH 17 0
BBX 15 12 1 0
BITMAP
F038
3030
3060
30E0
30C0
319C
FFA6
0306
070E
061C
0C30
1C3E
ENDCHAR
STARTCHAR threequarters
ENCODING 190
SWIDTH 1035 0
DWIDTH 17 0
BBX 14 12 1 0
BITMAP
F830
1860
70E0
18C0
1980
9B98
F338
0678
0E58
0C98
18FC
1818
ENDCHAR
STARTCHAR questiondown
ENCODING 191
SWIDTH 580 0
DWIDTH 9 0
BBX 7 12 1 0
BITMAP
18
18
18
00
18
38
70
E0
C0
C2
FE
7C
ENDCHAR
STARTCHAR Agrave
ENCODING 192
SWIDTH 773 0
DWIDTH 12 0
BBX 12 15 0 0
BITMAP
0C00
0600
0000
0F00
0F00
0F00
1980
1980
39C0
30C0
3FC0
7FE0
6060
6060
C030
ENDCHAR
STARTCHAR Aacute
ENCODING 193
SWIDTH 773 0
DWIDTH 12 0
BBX 12 15 0 0
BITMAP
0300
0600
0000
0F00
0F00
0F00
1980
1980
39C0
30C0
3FC0
7FE0
6060
6060
C030
ENDCHAR
STARTCHAR Acircumflex
ENCODING 194
SWIDTH 773 0
DWIDTH 12 0
BBX 12 15 0 0
BITMAP
0F00
1980
0000
0F00
0F00
0F00
1980
1980
39C0
30C0
3FC0
7FE0
6060
6060
C030
ENDCHAR
STARTCHAR Atilde
ENCODING 195
SWIDTH 773 0
DWIDTH 12 0
BBX 12 16 0 0
BITMAP
0D00
1F00
1600
0000
0F00
0F00
0F00
1980
1980
39C0
30C0
3FC0
7FE0
6060
6060
C030
ENDCHAR
STARTCHAR Adieresis
ENCODING 196
SWIDTH 773 0
DWIDTH 12 0
BBX 12 15 0 0
BITMAP
0D80
0D80
0000
0F00
0F00
0F00
1980
1980
39C0
30C0
3FC0
7FE0
6060
6060
C030
ENDCHAR
STARTCHAR Aring
ENCODING 197
SWIDTH 773 0
DWIDTH 12 0
BBX 12 15 0 0
BITMAP
0600
0900
0900
0600
0F00
0F00
1980
1980
1980
30C0
3FC0
7FE0
6060
6060
C030
ENDCHAR
STARTCHAR AE
ENCODING 198
SWIDTH 1084 0
DWIDTH 17 0
BBX 16 12 0 0
BITMAP
07FF
0FFF
0CC0
1CC0
18C0
18FF
30FF
3FC0
7FC0
60C0
60FF
C0FF
ENDCHAR
STARTCHAR Ccedilla
ENCODING 199
SWIDTH 733 0
DWIDTH 12 0
BBX 10 15 1 -3
BITMAP
1F80
3FC0
7040
E000
C000
C000
C000
C000
E000
7040
3FC0
1F80
0300
0100
0F00
ENDCHAR
STARTCHAR Egrave
ENCODING 200
SWIDTH 683 0
DWIDTH 10 0
BBX 8 15 1 0
BITMAP
30
18
00
FF
FF
C0
C0
C0
FF
FF
C0
C0
C0
FF
FF
ENDCHAR
STARTCHAR Eacute
ENCODING 201
SWIDTH 683 0
DWIDTH 10 0
BBX 8 15 1 0
BITMAP
06
0C
00
FF
FF
C0
C0
C0
FF
FF
C0
C0
C0
FF
FF
ENDCHAR
STARTCHAR Ecircumflex
ENCODING 202
SWIDTH 683 0
DWIDTH 10 0
BBX 8 15 1 0
BITMAP
1C
26
00
FF
FF
C0
C0
C0
FF
FF
C0
C0
C0
FF
FF
ENDCHAR
STARTCHAR Edieresis
ENCODING 203
SWIDTH 683 0
DWIDTH 10 0
BBX 8 15 1 0
BITMAP
36
36
00
FF
FF
C0
C0
C0
FF
FF
C0
C0
C0
FF
FF
ENDCHAR
STARTCHAR Igrave
ENCODING 204
SWIDTH 372 0
DWIDTH 6 0
BBX 4 15 0 0
BITMAP
E0
20
00
30
30
30
30
30
30
30
30
30
30
30
30
ENDCHAR
STARTCHAR Iacute
ENCODING 205
SWIDTH 372 0
DWIDTH 6 0
BBX 3 15 2 0
BITMAP
60
C0
00
C0
C0
C0
C0
C0
C0
C0
C0
C0
C0
C0
C0
ENDCHAR
STARTCHAR Icircumflex
ENCODING 206
SWIDTH 372 0
DWIDTH 6 0
BBX 5 15 0 0
BITMAP
70
C8
00
30
30
30
30
30
30
30
30
30
30
30
30
ENDCHAR
STARTCHAR Idieresis
ENCODING 207
SWIDTH 372 0
DWIDTH 6 0
BBX 5 15 1 0
BITMAP
D8
D8
00
60
60
60
60
60
60
60
60
60
60
60
60
ENDCHAR
STARTCHAR Eth
ENCODING 208
SWIDTH 837 0
DWIDTH 13 0
BBX 12 12 0 0
BITMAP
7F00
7FC0
61E0
6070
6030
F830
F830
6030
6070
61E0
7FC0
7F00
ENDCHAR
STARTCHAR Ntilde
ENCODING 209
SWIDTH 836 0
DWIDTH 13 0
BBX 10 16 1 0
BITMAP
1A00
1E00
2600
0000
E0C0
F0C0
F0C0
F8C0
D8C0
CCC0
CCC0
C6C0
C7C0
C3C0
C3C0
C1C0
ENDCHAR
STARTCHAR Ograve
ENCODING 210
SWIDTH 850 0
DWIDTH 14 0
BBX 12 15 1 0
BITMAP
1800
0C00
0000
1F80
3FC0
70E0
E070
C030
C030
C030
C030
E070
70E0
3FC0
1F80
ENDCHAR
STARTCHAR Oacute
ENCODING 211
SWIDTH 850 0
DWIDTH 14 0
BBX 12 15 1 0
BITMAP
0300
0600
0000
1F80
3FC0
70E0
E070
C030
C030
C030
C030
E070
70E0
3FC0
1F80
ENDCHAR
STARTCHAR Ocircumflex
ENCODING 212
SWIDTH 850 0
DWIDTH 14 0
BBX 12 15 1 0
BITMAP
0E00
1900
0000
1F80
3FC0
70E0
E070
C030
C030
C030
C030
E070
70E0
3FC0
1F80
ENDCHAR
STARTCHAR Otilde
ENCODING 213
SWIDTH 850 0
DWIDTH 14 0
BBX 12 16 1 0
BITMAP
1900
1E00
1600
0000
1F80
3FC0
70E0
E070
C030
C030
C030
C030
E070
70E0
3FC0
1F80
ENDCHAR
STARTCHAR Odieresis
ENCODING 214
SWIDTH 850 0
DWIDTH 14 0
BBX 12 15 1 0
BITMAP
0D80
0D80
0000
1F80
3FC0
70E0
E070
C030
C030
C030
C030
E070
70E0
3FC0
1F80
ENDCHAR
STARTCHAR multiply
ENCODING 215
SWIDTH 837 0
DWIDTH 13 0
BBX 9 9 2 1
BITMAP
4100
E380
7700
3E00
1C00
3E00
7700
E380
4100
ENDCHAR
STARTCHAR Oslash
ENCODING 216
SWIDTH 850 0
DWIDTH 14 0
BBX 12 12 1 0
BITMAP
0F90
3FF0
70E0
E0F0
C1B0
C730
CC30
D830
F070
70E0
FFC0
9F80
ENDCHAR
STARTCHAR Ugrave
ENCODING 217
SWIDTH 812 0
DWIDTH 12 0
BBX 10 15 1 0
BITMAP
1800
0C00
0000
C0C0
C0C0
C0C0
C0C0
C0C0
C0C0
C0C0
C0C0
C0C0
E1C0
7F80
3F00
ENDCHAR
STARTCHAR Uacute
ENCODING 218
SWIDTH 812 0
DWIDTH 12 0
BBX 10 15 1 0
BITMAP
0300
0600
0000
C0C0
C0C0
C0C0
C0C0
C0C0
C0C0
C0C0
C0C0
C0C0
E1C0
7F80
3F00
ENDCHAR
STARTCHAR Ucircumflex
ENCODING 219
SWIDTH 812 0
DWIDTH 12 0
BBX 10 15 1 0
BITMAP
0E00
1300
0000
C0C0
C0C0
C0C0
C0C0
C0C0
C0C0
C0C0
C0C0
C0C0
E1C0
7F80
3F00
ENDCHAR
STARTCHAR Udieresis
ENCODING 220
SWIDTH 812 0
DWIDTH 12 0
BBX 10 15 1 0
BITMAP
1B00
1B00
0000
C0C0
C0C0
C0C0
C0C0
C0C0
C0C0
C0C0
C0C0
C0C0
E1C0
7F80
3F00
ENDCHAR
STARTCHAR Yacute
ENCODING 221
SWIDTH 724 0
DWIDTH 12 0
BBX 10 15 0 0
BITMAP
0300
0600
0000
E1C0
6180
7380
3300
1E00
1E00
0C00
0C00
0C00
0C00
0C00
0C00
ENDCHAR
STARTCHAR Thorn
ENCODING 222
SWIDTH 737 0
DWIDTH 12 0
BBX 10 12 1 0
BITMAP
C000
C000
FF00
FF80
C1C0
C0C0
C0C0
C1C0
FF80
FF00
C000
C000
ENDCHAR
STARTCHAR germandbls
ENCODING 223
SWIDTH 719 0
DWIDTH 11 0
BBX 9 12 1 0
BITMAP
3C00
FF00
C300
C700
CC00
D800
DE00
CF00
C380
C180
DF80
DF00
ENDCHAR
STARTCHAR agrave
ENCODING 224
SWIDTH 674 0
DWIDTH 10 0
BBX 8 13 1 0
BITMAP
30
10
08
00
3E
7F
03
7F
FF
C3
C7
FF
7B
ENDCHAR
STARTCHAR aacute
ENCODING 225
SWIDTH 674 0
DWIDTH 10 0
BBX 8 13 1 0
BITMAP
06
0C
08
00
3E
7F
03
7F
FF
C3
C7
FF
7B
ENDCHAR
STARTCHAR acircumflex
ENCODING 226
SWIDTH 674 0
DWIDTH 10 0
BBX 8 13 1 0
BITMAP
1C
34
22
00
3E
7F
03
7F
FF
C3
C7
FF
7B
ENDCHAR
STARTCHAR atilde
ENCODING 227
SWIDTH 674 0
DWIDTH 10 0
BBX 8 13 1 0
BITMAP
34
3C
4C
00
3E
7F
03
7F
FF
C3
C7
FF
7B
ENDCHAR
STARTCHAR adieresis
ENCODING 228
SWIDTH 674 0
DWIDTH 10 0
BBX 8 12 1 0
BITMAP
36
36
00
3E
7F
03
7F
FF
C3
C7
FF
7B
ENDCHAR
STARTCHAR aring
ENCODING 229
SWIDTH 674 0
DWIDTH 10 0
BBX 8 14 1 0
BITMAP
1C
14
14
1C
00
3E
7F
03
7F
FF
C3
C7
FF
7B
ENDCHAR
STARTCHAR ae
ENCODING 230
SWIDTH 1047 0
DWIDTH 18 0
BBX 16 9 1 0
BITMAP
7E7C
7FFE
0183
7FFF
FFFF
C180
C3C1
FEFF
7C7E
ENDCHAR
STARTCHAR ccedilla
ENCODING 231
SWIDTH 592 0
DWIDTH 10 0
BBX 8 12 1 -3
BITMAP
3E
7F
E1
C0
C0
C0
E1
7F
3E
04
04
3C
ENDCHAR
STARTCHAR egrave
ENCODING 232
SWIDTH 678 0
DWIDTH 11 0
BBX 9 13 1 0
BITMAP
3000
1800
0800
0000
3E00
7F00
C180
FF80
FF80
C000
E080
7F80
3F00
ENDCHAR
STARTCHAR eacute
ENCODING 233
SWIDTH 678 0
DWIDTH 11 0
BBX 9 13 1 0
BITMAP
0600
0400
0C00
0000
3E00
7F00
C180
FF80
FF80
C000
E080
7F80
3F00
ENDCHAR
STARTCHAR ecircumflex
ENCODING 234
SWIDTH 678 0
DWIDTH 11 0
BBX 9 13 1 0
BITMAP
1C00
1600
3200
0000
3E00
7F00
C180
FF80
FF80
C000
E080
7F80
3F00
ENDCHAR
STARTCHAR edieresis
ENCODING 235
SWIDTH 678 0
DWIDTH 11 0
BBX 9 12 1 0
BITMAP
1B00
1B00
0000
3E00
7F00
C180
FF80
FF80
C000
E080
7F80
3F00
ENDCHAR
STARTCHAR igrave
ENCODING 236
SWIDTH 342 0
DWIDTH 4 0
BBX 4 13 0 0
BITMAP
C0
60
30
00
60
60
60
60
60
60
60
60
60
ENDCHAR
STARTCHAR iacute
ENCODING 237
SWIDTH 342 0
DWIDTH 4 0
BBX 4 13 1 0
BITMAP
10
30
60
00
C0
C0
C0
C0
C0
C0
C0
C0
C0
ENDCHAR
STARTCHAR icircumflex
ENCODING 238
SWIDTH 342 0
DWIDTH 4 0
BBX 6 13 0 0
BITMAP
30
78
CC
00
60
60
60
60
60
60
60
60
60
ENDCHAR
STARTCHAR idieresis
ENCODING 239
SWIDTH 342 0
DWIDTH 4 0
BBX 5 12 1 0
BITMAP
D8
D8
00
C0
C0
C0
C0
C0
C0
C0
C0
C0
ENDCHAR
STARTCHAR eth
ENCODING 240
SWIDTH 687 0
DWIDTH 11 0
BBX 9 12 1 0
BITMAP
7900
1E00
7E00
0700
3F00
7F80
E180
C180
C180
E380
7F00
3E00
ENDCHAR
STARTCHAR ntilde
ENCODING 241
SWIDTH 711 0
DWIDTH 11 0
BBX 9 13 1 0
BITMAP
3200
3E00
2C00
0000
DF00
FF80
E180
C180
C180
C180
C180
C180
C180
ENDCHAR
STARTCHAR ograve
ENCODING 242
SWIDTH 687 0
DWIDTH 11 0
BBX 9 13 1 0
BITMAP
3000
1800
0800
0000
3E00
7F00
E380
C180
C180
C180
E380
7F00
3E00
ENDCHAR
STARTCHAR oacute
ENCODING 243
SWIDTH 687 0
DWIDTH 11 0
BBX 9 13 1 0
BITMAP
0600
0400
0C00
0000
3E00
7F00
E380
C180
C180
C180
E380
7F00
3E00
ENDCHAR
STARTCHAR ocircumflex
ENCODING 244
SWIDTH 687 0
DWIDTH 11 0
BBX 9 13 1 0
BITMAP
1C00
1600
3200
0000
3E00
7F00
E380
C180
C180
C180
E380
7F00
3E00
ENDCHAR
STARTCHAR otilde
ENCODING 245
SWIDTH 687 0
DWIDTH 11 0
BBX 9 13 1 0
BITMAP
3200
3E00
2C00
0000
3E00
7F00
E380
C180
C180
C180
E380
7F00
3E00
ENDCHAR
STARTCHAR odieresis
ENCODING 246
SWIDTH 687 0
DWIDTH 11 0
BBX 9 12 1 0
BITMAP
1B00
1B00
0000
3E00
7F00
E380
C180
C180
C180
E380
7F00
3E00
ENDCHAR
STARTCHAR divide
ENCODING 247
SWIDTH 837 0
DWIDTH 13 0
BBX 10 8 2 1
BITMAP
0C00
0C00
0000
FFC0
FFC0
0000
0C00
0C00
ENDCHAR
STARTCHAR oslash
ENCODING 248
SWIDTH 687 0
DWIDTH 11 0
BBX 9 9 1 0
BITMAP
3E80
7F00
E380
C780
DD80
F180
E380
7F00
FE00
ENDCHAR
STARTCHAR ugrave
ENCODING 249
SWIDTH 711 0
DWIDTH 11 0
BBX 9 13 1 0
BITMAP
3000
1800
0C00
0000
C180
C180
C180
C180
C180
C180
C380
FF80
7D80
ENDCHAR
STARTCHAR uacute
ENCODING 250
SWIDTH 711 0
DWIDTH 11 0
BBX 9 13 1 0
BITMAP
0200
0600
0C00
0000
C180
C180
C180
C180
C180
C180
C380
FF80
7D80
ENDCHAR
STARTCHAR ucircumflex
ENCODING 251
SWIDTH 711 0
DWIDTH 11 0
BBX 9 13 1 0
BITMAP
0C00
1E00
3300
0000
C180
C180
C180
C180
C180
C180
C380
FF80
7D80
ENDCHAR
STARTCHAR udieresis
ENCODING 252
SWIDTH 711 0
DWIDTH 11 0
BBX 9 12 1 0
BITMAP
1B00
1B00
0000
C180
C180
C180
C180
C180
C180
C380
FF80
7D80
ENDCHAR
STARTCHAR yacute
ENCODING 253
SWIDTH 651 0
DWIDTH 10 0
BBX 10 16 0 -3
BITMAP
0300
0600
0400
0000
C0C0
6180
6180
3180
3300
3300
1E00
1E00
0E00
0C00
7C00
7800
ENDCHAR
STARTCHAR thorn
ENCODING 254
SWIDTH 715 0
DWIDTH 11 0
BBX 9 15 1 -3
BITMAP
C000
C000
C000
DE00
FF00
E380
C180
C180
C180
E380
FF00
DE00
C000
C000
C000
ENDCHAR
STARTCHAR ydieresis
ENCODING 255
SWIDTH 651 0
DWIDTH 10 0
BBX 10 15 0 -3
BITMAP
1B00
1B00
0000
C0C0
6180
6180
3180
3300
3300
1E00
1E00
0E00
0C00
7C00
7800
ENDCHAR
STARTCHAR Cacute
ENCODING 262
SWIDTH 733 0
DWIDTH 12 0
BBX 10 15 1 0
BITMAP
0300
0600
0000
1F80
3FC0
7040
E000
C000
C000
C000
C000
E000
7040
3FC0
1F80
ENDCHAR
STARTCHAR cacute
ENCODING 263
SWIDTH 592 0
DWIDTH 10 0
BBX 8 13 1 0
BITMAP
06
04
08
00
3E
7F
E1
C0
C0
C0
E1
7F
3E
ENDCHAR
STARTCHAR Ccaron
ENCODING 268
SWIDTH 733 0
DWIDTH 12 0
BBX 10 15 1 0
BITMAP
1900
0E00
0000
1F80
3FC0
7040
E000
C000
C000
C000
C000
E000
7040
3FC0
1F80
ENDCHAR
STARTCHAR ccaron
ENCODING 269
SWIDTH 592 0
DWIDTH 10 0
BBX 8 13 1 0
BITMAP
32
16
1C
00
3E
7F
E1
C0
C0
C0
E1
7F
3E
ENDCHAR
STARTCHAR dcroat
ENCODING 273
SWIDTH 715 0
DWIDTH 11 0
BBX 10 12 1 0
BITMAP
0180
0FC0
0180
3D80
7F80
E380
C180
C180
C180
E380
7F80
3D80
ENDCHAR
STARTCHAR Gbreve
ENCODING 286
SWIDTH 820 0
DWIDTH 13 0
BBX 11 15 1 0
BITMAP
3200
1E00
0000
1F80
3FC0
7040
E000
C000
C000
C1E0
C1E0
E060
7060
3FE0
1FC0
ENDCHAR
STARTCHAR gbreve
ENCODING 287
SWIDTH 715 0
DWIDTH 11 0
BBX 9 15 1 -3
BITMAP
2200
3C00
0000
3D80
7F80
E380
C180
C180
C180
E380
7F80
3D80
4380
7F00
3E00
ENDCHAR
STARTCHAR Idotaccent
ENCODING 304
SWIDTH 372 0
DWIDTH 6 0
BBX 2 15 2 0
BITMAP
C0
C0
00
C0
C0
C0
C0
C0
C0
C0
C0
C0
C0
C0
C0
ENDCHAR
STARTCHAR dotlessi
ENCODING 305
SWIDTH 342 0
DWIDTH 4 0
BBX 2 9 1 0
BITMAP
C0
C0
C0
C0
C0
C0
C0
C0
C0
ENDCHAR
STARTCHAR Lslash
ENCODING 321
SWIDTH 642 0
DWIDTH 10 0
BBX 9 12 -1 0
BITMAP
3000
3000
3400
3E00
3C00
3000
7000
F000
7000
3000
3F80
3F80
ENDCHAR
STARTCHAR lslash
ENCODING 322
SWIDTH 371 0
DWIDTH 4 0
BBX 4 12 0 0
BITMAP
60
60
60
70
70
70
E0
E0
60
60
60
60
ENDCHAR
STARTCHAR OE
ENCODING 338
SWIDTH 1166 0
DWIDTH 19 0
BBX 17 12 1 0
BITMAP
0FFF80
3FFF80
706000
E06000
C06000
C07F80
C07F80
C06000
E06000
706000
3FFF80
0FFF80
ENDCHAR
STARTCHAR oe
ENCODING 339
SWIDTH 1094 0
DWIDTH 19 0
BBX 17 9 1 0
BITMAP
1F3E00
7FFF00
E1C180
C0FF80
C0FF80
C0C000
E1E080
7FFF80
1F3F00
ENDCHAR
STARTCHAR Scedilla
ENCODING 350
SWIDTH 720 0
DWIDTH 11 0
BBX 9 15 1 -3
BITMAP
3F00
7F00
C100
C000
F000
7C00
1F00
0780
0180
8180
FF00
7E00
0400
0200
1C00
ENDCHAR
STARTCHAR scedilla
ENCODING 351
SWIDTH 595 0
DWIDTH 10 0
BBX 8 12 1 -3
BITMAP
7E
FF
C1
F8
7E
07
83
FF
7E
08
04
38
ENDCHAR
STARTCHAR Scaron
ENCODING 352
SWIDTH 720 0
DWIDTH 11 0
BBX 9 15 1 0
BITMAP
3200
1C00
0000
3F00
7F00
C100
C000
F000
7C00
1F00
0780
0180
8180
FF00
7E00
ENDCHAR
STARTCHAR scaron
ENCODING 353
SWIDTH 595 0
DWIDTH 10 0
BBX 8 13 1 0
BITMAP
64
2C
38
00
7E
FF
C1
F8
7E
07
83
FF
7E
ENDCHAR
STARTCHAR Ydieresis
ENCODING 376
SWIDTH 724 0
DWIDTH 12 0
BBX 10 15 0 0
BITMAP
0D80
0D80
0000
E1C0
6180
7380
3300
1E00
1E00
0C00
0C00
0C00
0C00
0C00
0C00
ENDCHAR
STARTCHAR Zcaron
ENCODING 381
SWIDTH 725 0
DWIDTH 12 0
BBX 10 15 1 0
BITMAP
3200
1C00
0000
FFC0
FFC0
0180
0380
0700
0E00
1C00
3800
7000
6000
FFC0
FFC0
ENDCHAR
STARTCHAR zcaron
ENCODING 382
SWIDTH 582 0
DWIDTH 9 0
BBX 8 13 1 0
BITMAP
64
2C
38
00
FF
FF
06
0C
18
30
60
FF
FF
ENDCHAR
STARTCHAR florin
ENCODING 402
SWIDTH 695 0
DWIDTH 11 0
BBX 11 15 0 -3
BITMAP
01E0
03E0
0380
0700
0700
1FC0
1FC0
0600
0E00
0E00
0E00
0E00
1C00
FC00
F800
ENDCHAR
STARTCHAR circumflex
ENCODING 710
SWIDTH 500 0
DWIDTH 8 0
BBX 6 3 1 10
BITMAP
30
78
CC
ENDCHAR
STARTCHAR caron
ENCODING 711
SWIDTH 500 0
DWIDTH 8 0
BBX 6 3 1 10
BITMAP
CC
78
30
ENDCHAR
STARTCHAR breve
ENCODING 728
SWIDTH 500 0
DWIDTH 8 0
BBX 5 2 1 10
BITMAP
88
70
ENDCHAR
STARTCHAR dotaccent
ENCODING 729
SWIDTH 500 0
DWIDTH 8 0
BBX 2 2 3 10
BITMAP
C0
C0
ENDCHAR
STARTCHAR ring
ENCODING 730
SWIDTH 500 0
DWIDTH 8 0
BBX 4 4 2 10
BITMAP
60
90
90
60
ENDCHAR
STARTCHAR ogonek
ENCODING 731
SWIDTH 500 0
DWIDTH 8 0
BBX 3 3 3 -3
BITMAP
80
80
E0
ENDCHAR
STARTCHAR tilde
ENCODING 732
SWIDTH 500 0
DWIDTH 8 0
BBX 5 3 1 10
BITMAP
68
F8
B0
ENDCHAR
STARTCHAR hungarumlaut
ENCODING 733
SWIDTH 500 0
DWIDTH 8 0
BBX 5 3 2 10
BITMAP
78
50
A0
ENDCHAR
STARTCHAR Omega
ENCODING 937
SWIDTH 769 0
DWIDTH 12 0
BBX 11 12 1 0
BITMAP
1F00
3F80
71C0
E0E0
C060
C060
C060
C060
60C0
71C0
F1E0
F1E0
ENDCHAR
STARTCHAR pi
ENCODING 960
SWIDTH 644 0
DWIDTH 10 0
BBX 11 9 0 0
BITMAP
7FE0
FFE0
D980
3980
3B80
3380
3300
3300
7300
ENDCHAR
STARTCHAR endash
ENCODING 8211
SWIDTH 500 0
DWIDTH 8 0
BBX 8 2 0 4
BITMAP
FF
FF
ENDCHAR
STARTCHAR emdash
ENCODING 8212
SWIDTH 1000 0
DWIDTH 16 0
BBX 16 2 0 4
BITMAP
FFFF
FFFF
ENDCHAR
STARTCHAR quoteleft
ENCODING 8216
SWIDTH 379 0
DWIDTH 6 0
BBX 3 5 2 7
BITMAP
60
C0
C0
C0
C0
ENDCHAR
STARTCHAR quoteright
ENCODING 8217
SWIDTH 379 0
DWIDTH 6 0
BBX 3 5 1 7
BITMAP
60
60
60
60
C0
ENDCHAR
STARTCHAR quotesinglbase
ENCODING 8218
SWIDTH 379 0
DWIDTH 6 0
BBX 3 5 1 -2
BITMAP
60
60
60
60
C0
ENDCHAR
STARTCHAR quotedblleft
ENCODING 8220
SWIDTH 657 0
DWIDTH 11 0
BBX 6 5 2 7
BITMAP
6C
D8
D8
D8
D8
ENDCHAR
STARTCHAR quotedblright
ENCODING 8221
SWIDTH 657 0
DWIDTH 11 0
BBX 6 5 1 7
BITMAP
6C
6C
6C
6C
D8
ENDCHAR
STARTCHAR quotedblbase
ENCODING 8222
SWIDTH 657 0
DWIDTH 11 0
BBX 6 5 1 -2
BITMAP
6C
6C
6C
6C
D8
ENDCHAR
STARTCHAR dagger
ENCODING 8224
SWIDTH 500 0
DWIDTH 8 0
BBX 6 13 1 -1
BITMAP
30
30
30
FC
FC
30
30
30
30
30
30
30
30
ENDCHAR
STARTCHAR daggerdbl
ENCODING 8225
SWIDTH 500 0
DWIDTH 8 0
BBX 6 13 1 -1
BITMAP
30
30
30
FC
FC
30
30
30
FC
FC
30
30
30
ENDCHAR
STARTCHAR bullet
ENCODING 8226
SWIDTH 639 0
DWIDTH 10 0
BBX 6 6 2 3
BITMAP
78
FC
FC
FC
FC
78
ENDCHAR
STARTCHAR ellipsis
ENCODING 8230
SWIDTH 1000 0
DWIDTH 16 0
BBX 12 3 1 0
BITMAP
C630
C630
C630
ENDCHAR
STARTCHAR perthousand
ENCODING 8240
SWIDTH 1439 0
DWIDTH 23 0
BBX 22 12 1 0
BITMAP
783000
CC7000
CC6000
CCC000
CDC000
798000
033C78
0766CC
0666CC
0C66CC
1C66CC
183C78
ENDCHAR
STARTCHAR guilsinglleft
ENCODING 8249
SWIDTH 412 0
DWIDTH 7 0
BBX 4 7 1 1
BITMAP
10
30
E0
C0
E0
30
10
ENDCHAR
STARTCHAR guilsinglright
ENCODING 8250
SWIDTH 412 0
DWIDTH 7 0
BBX 4 7 2 1
BITMAP
80
C0
70
30
70
C0
80
ENDCHAR
STARTCHAR Euro
ENCODING 8364
SWIDTH 695 0
DWIDTH 11 0
BBX 10 12 0 0
BITMAP
0F80
1FC0
3840
7000
FF00
FE00
6000
FC00
FC00
7040
3FC0
0F80
ENDCHAR
STARTCHAR trademark
ENCODING 8482
SWIDTH 1000 0
DWIDTH 16 0
BBX 9 5 3 7
BITMAP
ED80
4D80
4A80
4A80
4880
ENDCHAR
STARTCHAR partialdiff
ENCODING 8706
SWIDTH 543 0
DWIDTH 9 0
BBX 8 11 0 0
BITMAP
3C
32
03
03
3B
67
C7
C7
C6
CC
78
ENDCHAR
STARTCHAR Delta
ENCODING 8710
SWIDTH 696 0
DWIDTH 11 0
BBX 11 12 0 0
BITMAP
0E00
0E00
1F00
1B00
1B00
3B80
3180
3180
71C0
60C0
7FC0
FFE0
ENDCHAR
STARTCHAR product
ENCODING 8719
SWIDTH 787 0
DWIDTH 13 0
BBX 10 15 1 -3
BITMAP
FFC0
FFC0
C0C0
C0C0
C0C0
C0C0
C0C0
C0C0
C0C0
C0C0
C0C0
C0C0
C0C0
C0C0
C0C0
ENDCHAR
STARTCHAR summation
ENCODING 8721
SWIDTH 717 0
DWIDTH 11 0
BBX 10 15 1 -3
BITMAP
FFC0
FFC0
7000
7800
3800
1C00
0E00
0700
0E00
1C00
1800
3800
7000
FFC0
FFC0
ENDCHAR
STARTCHAR minus
ENCODING 8722
SWIDTH 837 0
DWIDTH 13 0
BBX 10 2 2 4
BITMAP
FFC0
FFC0
ENDCHAR
STARTCHAR fraction
ENCODING 8725
SWIDTH 166 0
DWIDTH 3 0
BBX 9 12 -3 0
BITMAP
0380
0300
0700
0600
0C00
0C00
1800
3800
3000
7000
6000
E000
ENDCHAR
STARTCHAR periodcentered
ENCODING 8729
SWIDTH 379 0
DWIDTH 6 0
BBX 2 3 1 4
BITMAP
C0
C0
C0
ENDCHAR
STARTCHAR radical
ENCODING 8730
SWIDTH 666 0
DWIDTH 11 0
BBX 10 13 1 0
BITMAP
00C0
0080
0180
0100
0100
2300
E200
3600
3400
3400
1C00
1800
0800
ENDCHAR
STARTCHAR infinity
ENCODING 8734
SWIDTH 833 0
DWIDTH 13 0
BBX 10 7 2 1
BITMAP
7380
FFC0
8E40
8C40
9C40
FFC0
7380
ENDCHAR
STARTCHAR integral
ENCODING 8747
SWIDTH 609 0
DWIDTH 10 0
BBX 8 15 1 -3
BITMAP
07
0B
0B
18
18
18
18
18
18
18
18
18
D0
D0
E0
ENDCHAR
STARTCHAR approxequal
ENCODING 8776
SWIDTH 837 0
DWIDTH 13 0
BBX 10 6 2 2
BITMAP
7840
FFC0
8780
7840
FFC0
8780
ENDCHAR
STARTCHAR notequal
ENCODING 8800
SWIDTH 837 0
DWIDTH 13 0
BBX 10 10 2 0
BITMAP
0180
0180
FFC0
FFC0
0C00
0C00
FFC0
FFC0
6000
4000
ENDCHAR
STARTCHAR lessequal
ENCODING 8804
SWIDTH 837 0
DWIDTH 13 0
BBX 10 9 2 0
BITMAP
00C0
1FC0
FC00
FC00
1FC0
00C0
0000
FFC0
FFC0
ENDCHAR
STARTCHAR greaterequal
ENCODING 8805
SWIDTH 837 0
DWIDTH 13 0
BBX 10 9 2 0
BITMAP
C000
FC00
1FC0
01C0
1FC0
FC00
C000
FFC0
FFC0
ENDCHAR
STARTCHAR lozenge
ENCODING 9674
SWIDTH 494 0
DWIDTH 8 0
BBX 8 15 0 -3
BITMAP
18
18
24
24
66
42
C3
81
C3
42
66
24
24
18
18
ENDCHAR
STARTCHAR fi
ENCODING 64257
SWIDTH 741 0
DWIDTH 12 0
BBX 10 12 1 0
BITMAP
3EC0
7EC0
6000
FFC0
FFC0
60C0
60C0
60C0
60C0
60C0
60C0
60C0
ENDCHAR
STARTCHAR fl
ENCODING 64258
SWIDTH 741 0
DWIDTH 12 0
BBX 10 12 1 0
BITMAP
3FC0
7FC0
60C0
FEC0
FEC0
60C0
60C0
60C0
60C0
60C0
60C0
60C0
ENDCHAR
STARTCHAR .notdef
ENCODING -1
SWIDTH 600 0
DWIDTH 10 0
BBX 8 14 1 -3
BITMAP
FF
81
81
81
81
81
81
81
81
81
81
81
81
FF
ENDCHAR
STARTCHAR .null
ENCODING -1
SWIDTH 0 0
DWIDTH 0 0
BBX 1 1 0 0
BITMAP
00
ENDCHAR
STARTCHAR nonmarkingreturn
ENCODING -1
SWIDTH 348 0
DWIDTH 6 0
BBX 1 1 0 0
BITMAP
00
ENDCHAR
STARTCHAR c6459
ENCODING -1
SWIDTH 500 0
DWIDTH 8 0
BBX 5 2 2 10
BITMAP
D8
D8
ENDCHAR
STARTCHAR c6460
ENCODING -1
SWIDTH 500 0
DWIDTH 8 0
BBX 3 2 3 10
BITMAP
60
C0
ENDCHAR
STARTCHAR c6461
ENCODING -1
SWIDTH 500 0
DWIDTH 8 0
BBX 5 3 1 10
BITMAP
68
F8
B0
ENDCHAR
STARTCHAR c6462
ENCODING -1
SWIDTH 500 0
DWIDTH 8 0
BBX 3 2 2 10
BITMAP
C0
60
ENDCHAR
STARTCHAR c6463
ENCODING -1
SWIDTH 500 0
DWIDTH 8 0
BBX 6 2 1 10
BITMAP
78
CC
ENDCHAR
STARTCHAR c6466
ENCODING -1
SWIDTH 500 0
DWIDTH 8 0
BBX 6 2 1 10
BITMAP
CC
78
ENDCHAR
STARTCHAR c6467
ENCODING -1
SWIDTH 500 0
DWIDTH 8 0
BBX 5 2 1 10
BITMAP
88
70
ENDCHAR
STARTCHAR c6468
ENCODING -1
SWIDTH 500 0
DWIDTH 8 0
BBX 2 2 3 10
BITMAP
C0
C0
ENDCHAR
ENDFONT
